<?xml version="1.0" encoding="iso-8859-1"?>
<!-- Generator: Adobe Illustrator 20.1.0, SVG Export Plug-In . SVG Version: 6.00 Build 0)  -->
<svg xmlns="http://www.w3.org/2000/svg" xmlns:xlink="http://www.w3.org/1999/xlink" version="1.1" id="&#1057;&#1083;&#1086;&#1081;_1" x="0px" y="0px" viewBox="0 0 64 64" style="enable-background:new 0 0 64 64;" xml:space="preserve">
<linearGradient id="SVGID_1__44814" gradientUnits="userSpaceOnUse" x1="42" y1="30.5" x2="42" y2="39.3337" spreadMethod="reflect">
	<stop offset="0" style="stop-color:#6DC7FF"/>
	<stop offset="1" style="stop-color:#E6ABFF"/>
</linearGradient>
<path style="fill:url(#SVGID_1__44814);" d="M46,35c0,2.209-1.791,4-4,4h0c-2.209,0-4-1.791-4-4v0c0-2.209,1.791-4,4-4h0  C44.209,31,46,32.791,46,35L46,35z"/>
<linearGradient id="SVGID_2__44814" gradientUnits="userSpaceOnUse" x1="32" y1="5.8333" x2="32" y2="59.1503" spreadMethod="reflect">
	<stop offset="0" style="stop-color:#1A6DFF"/>
	<stop offset="1" style="stop-color:#C822FF"/>
</linearGradient>
<path style="fill:url(#SVGID_2__44814);" d="M56,20h-8V9c0-1.654-1.346-3-3-3H9C7.346,6,6,7.346,6,9v41v1v4c0,1.654,1.346,3,3,3h36  c1.654,0,3-1.346,3-3v-4v-1v-4h8c1.103,0,2-0.897,2-2V26v-4C58,20.897,57.103,20,56,20z M56,24H28v-2h28V24z M56,31.92v6.16  c-3.059,0.441-5.479,2.861-5.92,5.92H33.92c-0.441-3.059-2.861-5.479-5.92-5.92v-6.16c3.059-0.441,5.479-2.861,5.92-5.92h16.16  C50.521,29.059,52.941,31.479,56,31.92z M28,26h3.899C31.5,27.956,29.956,29.5,28,29.899V27V26z M28,40.101  c1.956,0.399,3.5,1.943,3.899,3.899H28V40.101z M45,56H9c-0.552,0-1-0.448-1-1v-1.184C8.314,53.928,8.648,54,9,54h36  c0.352,0,0.686-0.072,1-0.184V55C46,55.552,45.552,56,45,56z M46,50v1c0,0.552-0.448,1-1,1H9c-0.552,0-1-0.448-1-1v-1V9  c0-0.552,0.448-1,1-1h36c0.552,0,1,0.448,1,1v11H28c-1.103,0-2,0.897-2,2v4v1v17c0,1.103,0.897,2,2,2h18V50z M52.101,44  c0.399-1.956,1.943-3.5,3.899-3.899V44H52.101z M56,29.899C54.044,29.5,52.5,27.956,52.101,26H56V29.899z"/>
<linearGradient id="SVGID_3__44814" gradientUnits="userSpaceOnUse" x1="27" y1="5.8333" x2="27" y2="59.1503" spreadMethod="reflect">
	<stop offset="0" style="stop-color:#1A6DFF"/>
	<stop offset="1" style="stop-color:#C822FF"/>
</linearGradient>
<rect x="12" y="14" style="fill:url(#SVGID_3__44814);" width="30" height="2"/>
<linearGradient id="SVGID_4__44814" gradientUnits="userSpaceOnUse" x1="17" y1="5.8333" x2="17" y2="59.1503" spreadMethod="reflect">
	<stop offset="0" style="stop-color:#1A6DFF"/>
	<stop offset="1" style="stop-color:#C822FF"/>
</linearGradient>
<path style="fill:url(#SVGID_4__44814);" d="M12,22v16c0,1.103,0.897,2,2,2h8V20h-8C12.897,20,12,20.897,12,22z M14,28h6v4h-6V28z M14,38  v-4h6v4H14z M20,26h-6v-4h6V26z"/>
<linearGradient id="SVGID_5__44814" gradientUnits="userSpaceOnUse" x1="17" y1="5.8333" x2="17" y2="59.1503" spreadMethod="reflect">
	<stop offset="0" style="stop-color:#1A6DFF"/>
	<stop offset="1" style="stop-color:#C822FF"/>
</linearGradient>
<rect x="12" y="44" style="fill:url(#SVGID_5__44814);" width="10" height="2"/>
</svg>
