<?xml version="1.0" encoding="iso-8859-1"?>
<!-- Generator: Adobe Illustrator 20.1.0, SVG Export Plug-In . SVG Version: 6.00 Build 0)  -->
<svg xmlns="http://www.w3.org/2000/svg" xmlns:xlink="http://www.w3.org/1999/xlink" version="1.1" id="&#1057;&#1083;&#1086;&#1081;_1" x="0px" y="0px" viewBox="0 0 64 64" style="enable-background:new 0 0 64 64;" xml:space="preserve">
<linearGradient id="SVGID_1__44039" gradientUnits="userSpaceOnUse" x1="26" y1="35.9167" x2="26" y2="40.3239" spreadMethod="reflect">
	<stop offset="0" style="stop-color:#6DC7FF"/>
	<stop offset="1" style="stop-color:#E6ABFF"/>
</linearGradient>
<path style="fill:url(#SVGID_1__44039);" d="M32,39c0,0.552-0.448,1-1,1H21c-0.552,0-1-0.448-1-1v-2c0-0.552,0.448-1,1-1h10  c0.552,0,1,0.448,1,1V39z"/>
<linearGradient id="SVGID_2__44039" gradientUnits="userSpaceOnUse" x1="31.9999" y1="7.8333" x2="31.9999" y2="57.0011" spreadMethod="reflect">
	<stop offset="0" style="stop-color:#1A6DFF"/>
	<stop offset="1" style="stop-color:#C822FF"/>
</linearGradient>
<path style="fill:url(#SVGID_2__44039);" d="M57.304,31.099C56.716,30.4,55.848,30,54.92,30H53v-3c0-1.654-1.5-3-3-3V14  c0-1.103-0.897-2-2-2H33.618l-1.447-2.894C31.831,8.424,31.146,8,30.382,8h-6.764H23h-7c-1.103,0-2,0.897-2,2v36H6v5  c0,2.757,2.243,5,5,5h34c2.757,0,5-2.243,5-5v-7h1.765c2.532,0,4.673-1.753,5.092-4.169l1.1-6.334  C58.105,32.643,57.868,31.769,57.304,31.099z M51,27v3h-6v-3c0-0.552,0.449-1,1-1h4C50.552,26,51,26.448,51,27z M48,16h-2v-2h2V16z   M30.382,10l1,2h-5.765l-1-2H30.382z M22.382,10l1.447,2.895C24.171,13.576,24.857,14,25.619,14H44v2H16v-6H22.382z M11,54  c-1.654,0-3-1.345-3-3v-3h32v3c0,1.125,0.373,2,1.002,3H11z M48,51c0,1.654-1.346,3-3,3c-1.654,0-3-1.346-3-3v-5H16V18h32v6h-2  c-1.654,0-3,1.346-3,3v3h-1.92c-0.928,0-1.796,0.4-2.384,1.099c-0.563,0.67-0.801,1.544-0.652,2.397l1.1,6.335  C39.563,42.247,41.703,44,44.236,44H48V51z M55.986,33.154l-1.1,6.335C54.634,40.944,53.322,42,51.765,42h-7.529  c-1.557,0-2.869-1.056-3.121-2.511l-1.1-6.336c-0.064-0.371,0.105-0.64,0.213-0.768C40.434,32.141,40.744,32,41.08,32h13.84  c0.336,0,0.646,0.141,0.853,0.386C55.88,32.514,56.05,32.782,55.986,33.154z"/>
<linearGradient id="SVGID_3__44039" gradientUnits="userSpaceOnUse" x1="30" y1="7.8333" x2="30" y2="57.0011" spreadMethod="reflect">
	<stop offset="0" style="stop-color:#1A6DFF"/>
	<stop offset="1" style="stop-color:#C822FF"/>
</linearGradient>
<rect x="20" y="22" style="fill:url(#SVGID_3__44039);" width="20" height="2"/>
<linearGradient id="SVGID_4__44039" gradientUnits="userSpaceOnUse" x1="28" y1="7.8333" x2="28" y2="57.0011" spreadMethod="reflect">
	<stop offset="0" style="stop-color:#1A6DFF"/>
	<stop offset="1" style="stop-color:#C822FF"/>
</linearGradient>
<rect x="20" y="26" style="fill:url(#SVGID_4__44039);" width="16" height="2"/>
<linearGradient id="SVGID_5__44039" gradientUnits="userSpaceOnUse" x1="25.9999" y1="7.8333" x2="25.9999" y2="57.0011" spreadMethod="reflect">
	<stop offset="0" style="stop-color:#1A6DFF"/>
	<stop offset="1" style="stop-color:#C822FF"/>
</linearGradient>
<rect x="20" y="30" style="fill:url(#SVGID_5__44039);" width="12" height="2"/>
<linearGradient id="SVGID_6__44039" gradientUnits="userSpaceOnUse" x1="48" y1="7.8334" x2="48" y2="57.0011" spreadMethod="reflect">
	<stop offset="0" style="stop-color:#1A6DFF"/>
	<stop offset="1" style="stop-color:#C822FF"/>
</linearGradient>
<rect x="47" y="34" style="fill:url(#SVGID_6__44039);" width="2" height="6"/>
<linearGradient id="SVGID_7__44039" gradientUnits="userSpaceOnUse" x1="52" y1="7.8334" x2="52" y2="57.0011" spreadMethod="reflect">
	<stop offset="0" style="stop-color:#1A6DFF"/>
	<stop offset="1" style="stop-color:#C822FF"/>
</linearGradient>
<rect x="51" y="34" style="fill:url(#SVGID_7__44039);" width="2" height="4"/>
<linearGradient id="SVGID_8__44039" gradientUnits="userSpaceOnUse" x1="44" y1="7.8334" x2="44" y2="57.0011" spreadMethod="reflect">
	<stop offset="0" style="stop-color:#1A6DFF"/>
	<stop offset="1" style="stop-color:#C822FF"/>
</linearGradient>
<rect x="43" y="34" style="fill:url(#SVGID_8__44039);" width="2" height="4"/>
</svg>
